# xmcd
#
# Track frame offsets:
# 150
# 22591
# 41577
# 59093
# 79019
# 94870
# 130281
# 146397
#
# Disc length: 2203 seconds
#
#
# Revision: 0
# Processed by: cddbd v1.5.2PL0 Copyright (c) Steve Scherf et al.
# Submitted via: FreeRIP 2.945 
#
DISCID=62089908
DTITLE=Ray Goodman and Brown - Ray Goodman and Brown
DYEAR=1900
DGENRE=Soul
TTITLE0=Inside Of You
TTITLE1=Special Lady
TTITLE2=Slipped Away
TTITLE3=The Way It Should Be
TTITLE4=Treat Her Right
TTITLE5=Thrill - Friends
TTITLE6=Deja Vu
TTITLE7=Another Day
EXTD=
EXTT0=
EXTT1=
EXTT2=
EXTT3=
EXTT4=
EXTT5=
EXTT6=
EXTT7=
PLAYORDER=
